<?xml version="1.0" standalone="no"?><!DOCTYPE svg PUBLIC "-//W3C//DTD SVG 1.1//EN" "http://www.w3.org/Graphics/SVG/1.1/DTD/svg11.dtd"><svg t="1520906049621" class="icon" style="" viewBox="0 0 1024 1024" version="1.1" xmlns="http://www.w3.org/2000/svg" p-id="1920" xmlns:xlink="http://www.w3.org/1999/xlink" width="200" height="200"><defs><style type="text/css"></style></defs><path d="M921.6 230.4l-109.0048 0c20.1088-24.3456 32.192-55.5648 32.192-89.6 0-77.76-63.04-140.8-140.8-140.8-54.5152 0-101.696 31.04-125.0816 76.352C560.9088 60.736 537.536 51.2 512 51.2s-48.9088 9.536-66.8928 25.152C421.7088 31.04 374.528 0 320.0128 0c-77.76 0-140.8 63.04-140.8 140.8 0 34.0352 12.0832 65.2544 32.192 89.6L102.4 230.4c-56.32 0-102.4 46.08-102.4 102.4l0 76.8c0 42.752 26.5728 79.5392 64 94.8224L64 921.6c0 56.32 46.08 102.4 102.4 102.4l691.2 0c56.32 0 102.4-46.08 102.4-102.4L960 504.4224c37.4272-15.2704 64-52.0704 64-94.8224l0-76.8C1024 276.48 977.92 230.4 921.6 230.4zM703.9872 51.2c49.408 0 89.6 40.192 89.6 89.6s-40.192 89.6-89.6 89.6L614.4 230.4l0-76.8c0-0.1152-0.0128-0.2304-0.0128-0.3584L614.3872 140.8C614.3872 91.392 654.5792 51.2 703.9872 51.2zM512 972.8c-28.2368 0-51.2-22.9632-51.2-51.2L460.8 512l102.4 0 0 409.6C563.2 949.8368 540.2368 972.8 512 972.8zM460.8 460.8 460.8 281.6l0.0128 0 102.3616 0L563.2 281.6l0 179.2L460.8 460.8zM512 102.4c28.1728 0 51.0848 22.8736 51.1872 51.0208L563.1872 230.4l-102.3616 0 0-76.9792C460.9152 125.2736 483.8272 102.4 512 102.4zM230.4128 140.8c0-49.408 40.192-89.6 89.6-89.6s89.6 40.192 89.6 89.6l0 12.4416C409.6128 153.3696 409.6 153.4848 409.6 153.6l0 76.8-89.5872 0C270.6176 230.4 230.4128 190.208 230.4128 140.8zM51.2 332.8c0-28.2368 22.9632-51.2 51.2-51.2l217.6128 0L409.6 281.6l0 179.2L102.4 460.8c-28.2368 0-51.2-22.9632-51.2-51.2L51.2 332.8zM115.2 921.6 115.2 512l294.4 0 0 409.6c0 18.6368 5.1328 36.1088 13.9264 51.2L166.4 972.8C138.1632 972.8 115.2 949.8368 115.2 921.6zM908.8 921.6c0 28.2368-22.9632 51.2-51.2 51.2L600.4736 972.8C609.2672 957.7088 614.4 940.2368 614.4 921.6L614.4 512l294.4 0L908.8 921.6zM972.8 409.6c0 28.2368-22.9632 51.2-51.2 51.2L614.4 460.8 614.4 281.6l89.5872 0L921.6 281.6c28.2368 0 51.2 22.9632 51.2 51.2L972.8 409.6z" p-id="1921"></path></svg>